PathFileType	4	(X/Y/Z)	RBDS027\RBDS027runT25.trc
DataRate	CameraRate	NumFrames	NumMarkers	Units	OrigDataRate	OrigDataStartFrame	OrigNumFrames
150.000000	150.000000	6	33	mm	150.000000	0	4500
Frame#	Time	L.ASIS			L.Heel.Bottom			L.Heel.Lateral			L.Heel.Top			L.Iliac.Crest			L.MT1			L.MT5			L.PSIS			L.Shank.Bottom.Lateral			L.Shank.Bottom.Medial			L.Shank.Top.Lateral			L.Shank.Top.Medial			L.Thigh.Bottom.Lateral			L.Thigh.Bottom.Medial			L.Thigh.Top.Lateral			L.Thigh.Top.Medial			R.ASIS			R.ASY			R.Heel.Bottom			R.Heel.Lateral			R.Heel.Top			R.Iliac.Crest			R.MT1			R.MT5			R.PSIS			R.Shank.Bottom.Lateral			R.Shank.Bottom.Medial			R.Shank.Top.Lateral			R.Shank.Top.Medial			R.Thigh.Bottom.Lateral			R.Thigh.Bottom.Medial			R.Thigh.Top.Lateral			R.Thigh.Top.Medial			
		X1	Y1	Z1	X2	Y2	Z2	X3	Y3	Z3	X4	Y4	Z4	X5	Y5	Z5	X6	Y6	Z6	X7	Y7	Z7	X8	Y8	Z8	X9	Y9	Z9	X10	Y10	Z10	X11	Y11	Z11	X12	Y12	Z12	X13	Y13	Z13	X14	Y14	Z14	X15	Y15	Z15	X16	Y16	Z16	X17	Y17	Z17	X18	Y18	Z18	X19	Y19	Z19	X20	Y20	Z20	X21	Y21	Z21	X22	Y22	Z22	X23	Y23	Z23	X24	Y24	Z24	X25	Y25	Z25	X26	Y26	Z26	X27	Y27	Z27	X28	Y28	Z28	X29	Y29	Z29	X30	Y30	Z30	X31	Y31	Z31	X32	Y32	Z32	X33	Y33	Z33	

1	0	2136.830073704742	818.3901515556606	884.8932142114996	1611.077377687953	407.8992297037734	956.1736257318671	1625.842992231062	382.1836943947903	906.284309282714	1658.477928929226	392.6172326442088	953.0961079046207	2100.073679727484	895.4227740212659	850.7304290360337	1620.120593476691	189.239617817936	967.3287762965969	1607.850187173246	236.3621067140768	865.8961697270901	1965.379739105124	851.4945003044518	945.6278222813406	1728.106135483582	351.7215758867919	880.5577419642436	1726.247050735236	382.0661037330551	928.0184521115629	1803.514029546835	380.8458206901851	870.0160173285998	1802.187785882908	407.3218751546022	916.6717264943903	2036.571157879335	462.5647800405448	833.8759845151549	1985.703943694318	463.136033734522	885.0187656364782	2024.058254028026	571.4653619099701	824.5854544204485	1976.783467470128	572.3118444697454	873.3018115902868	2100.47804767418	847.3688201898718	1142.025288140003	2181.026298927522	75.50217178376666	1021.899922175456	2000.713438165356	28.05273414463713	978.3071395135094	2022.255888981504	43.52969554786853	1026.953725082732	2013.05101733273	72.43219473882296	981.2354720960826	2048.508104340885	912.0748554783841	1159.168315012541	2224.138528029512	28.53642137090329	978.4308380894263	2164.28859250191	32.16675930748324	1084.32772383181	1952.084523668782	859.6730148192107	1039.381866471143	2087.061558812019	137.7919489460023	1058.762325220039	2062.304185556644	162.772368391157	1021.505306571056	2104.937179838918	212.9018942493291	1094.343856945081	2078.823911955377	234.9588159290328	1053.726440025469	2169.908184333153	498.0967784739494	1163.392693708272	2120.665935505408	468.914574444463	1118.076653111688	2100.821927806809	582.5264242058513	1178.049030463037	2053.492837189889	554.5993705010516	1135.437238155415	
2	0.006666666666666667	2134.949921497057	814.9863438135051	885.2691931376845	1622.404703275793	405.193114114919	952.9275280552756	1638.416631580759	379.9468339738347	903.2615346849914	1670.118871526965	390.3967650792864	950.5907861295995	2097.575832322284	892.4501549936077	850.6759311632592	1633.933671025307	186.3534787763091	963.4160184581444	1622.870140979451	233.8413606216223	862.0064629419678	1963.430922031932	848.8846773983555	945.3206256864511	1742.044596621343	349.6573712328858	879.0537492079103	1739.591410744512	380.0238595416673	926.135002348753	1817.172519244194	378.5895414052598	868.5939590064016	1815.782902723463	404.8290232511542	915.4006410609768	2046.219490765934	458.8153695249276	833.0101885517536	1995.453441316836	457.439496765805	883.9012626341633	2030.056339157986	567.1325033184687	823.5384847281994	1982.290686800289	566.0529597589525	871.6903113365387	2097.992367346818	844.740087106845	1142.693420029478	2164.752845519628	75.23868905992714	1021.890462689937	1984.326145340217	28.47749007485186	978.3788801853816	2005.921459751844	43.91699562104504	1027.015485659703	1996.777116924975	72.82889845619954	981.3387293181328	2045.615180816128	909.1825160955256	1159.145936453932	2207.670762866281	28.29115293199238	978.5932989995129	2147.781770295956	32.08355411803866	1084.458167524622	1950.046492358767	857.3399178984679	1039.025863165231	2073.152036273127	138.2266047220008	1059.170696501841	2049.116447866722	163.9786318720286	1022.076975752471	2093.360298425249	212.572500381923	1094.886124617578	2067.941634753254	235.4390671485522	1054.347747978274	2164.842565566412	494.3488307134272	1163.84898215674	2115.542676543378	465.5777915597	1118.258253268306	2096.48813783955	579.4401513935649	1178.202110192779	2049.180802729491	551.9998962380851	1135.242866502871	
3	0.01333333333333333	2133.079454484506	811.7923714713352	885.6428231726676	1633.729830486714	402.2415946290283	949.6162339350219	1651.011021071195	377.4575921349273	900.1957839016254	1681.761149359668	388.0022307678451	948.0169241581142	2095.079985836859	889.6690359826019	850.6264631023118	1647.987880647596	183.3096090566657	959.6470039999352	1638.101156054812	231.0724615348655	858.2166218320489	1961.490070764451	846.4481480788979	945.0591922706882	1755.968343362378	347.4804954643386	877.5153731019755	1752.908651140928	377.8942901395406	924.2189184210725	1830.812716597405	376.3149778726847	867.1569696128616	1829.308164760399	402.3617142149608	914.083705560491	2055.847309134648	455.3783865325156	832.2113575063145	2005.199426461341	452.0525136284255	882.8565310545266	2036.026179547662	563.0653882907201	822.5646493654423	1987.817023683132	560.0562568220369	870.1689791506374	2095.548345277041	842.2143411738308	1143.351485100928	2148.461798014043	74.98998317354553	1021.908559880041	1967.913996357602	28.99099592752777	978.4504395974485	1989.563756703578	44.37500422030037	1027.083636661592	1980.496886699978	73.30732012725387	981.4494690805534	2042.799589188696	906.4732745206541	1159.142854713582	2191.156780139966	28.04430004983511	978.7422090162345	2131.228503449982	32.00046920766175	1084.587529796455	1948.031897812184	855.1562482815726	1038.714712228952	2059.174810621003	138.693842984624	1059.576043437527	2035.857362001542	165.2017199913408	1022.637385039646	2081.670902525118	212.2760663463106	1095.422456590928	2056.94069847823	235.9366067086762	1054.96067489305	2159.602503007382	490.6877489873516	1164.320856894275	2110.219545568112	462.3517262037034	1118.485501476867	2092.051678620613	576.4766015734917	1178.369803570621	2044.742281017744	549.5481920240501	1135.083603998435	
4	0.02	2131.222988248564	808.985387941659	886.0172287922946	1645.03493313364	398.8234097854667	946.1882463227515	1663.634562219364	374.4885571058245	897.0559383446466	1693.389293962368	385.2795740517161	945.3185669060583	2092.592944609507	887.2416036044835	850.589382328459	1662.496205465091	179.958363608491	956.1376215218826	1653.722255503992	227.8341157209413	854.6072816480533	1959.562052485085	844.3366458368619	944.8807343710477	1769.861834756856	345.0924659592519	875.9126932241747	1766.165989277098	375.6027099360803	922.2378011086496	1844.415595494317	374.0110202796029	865.6886088376464	1842.693469859819	399.9512354993842	912.6752602065659	2065.44615717251	452.540951298259	831.5387893309342	2014.948823787005	447.2574608133642	881.948131422801	2041.947869358487	559.5055085223111	821.7296228665708	1993.385252021896	554.5591273487213	868.8189241869786	2093.170618888191	839.883558136666	1143.997537608115	2132.136073838013	74.77143169314084	1021.969163942992	1951.450867637767	29.6666535301981	978.5219688767019	1973.159123561526	44.96160215482303	1027.164705654099	1964.198652674159	73.93597324350272	981.5745807267733	2040.119487403498	904.0972049372162	1159.180599609274	2174.556338879581	27.80021037643685	978.8650569652624	2114.58993507454	31.9218822212363	1084.712971296737	1946.054930058637	853.2551485690034	1038.483921152602	2045.067978656228	139.2194463873628	1059.972757481811	2022.459255091298	166.4542708620064	1023.176186544698	2069.770597707299	212.0363040368819	1095.944527435395	2045.715035337884	236.4631982985458	1055.556600857481	2154.035050537508	487.1792355171066	1164.814255970747	2104.515763189874	459.3231361278731	1118.792010885601	2087.416362007444	573.7347751440908	1178.560314416819	2040.057285558491	547.3643023462478	1134.986729634716	
5	0.02666666666666667	2129.388209704059	806.7075264363976	886.3979436855395	1656.29296285343	394.7565869548897	942.6221688722139	1676.278449224299	370.8584553643144	893.8341387137257	1704.975747261607	382.1018682642967	942.46880447774	2090.128716316587	885.2980404139621	850.5734581362867	1677.619973183328	176.1821994515651	952.9782247906928	1669.859212193285	223.9607889934969	851.2456021730459	1957.656008103953	842.6737866028827	944.8122334143984	1783.703010111929	342.4173075625449	874.2327047239968	1779.319890662337	373.0907509874898	920.17347348008	1857.948078586409	371.6728853492774	864.1810717982356	1855.863869379163	397.6245355182409	911.1444839462705	2075.0004758639	450.5398080528901	831.0399323694593	2024.696933384522	443.2907385290008	881.2262647731432	2047.801724834354	556.6531091655954	821.0850615113883	1999.007698889999	549.7631582740194	867.7053256837039	2090.878627566613	837.8290536320005	1144.633307799703	2115.776333140836	74.59676889103943	1022.079430425423	1934.930366695578	30.56537996207204	978.5941714734025	1956.703637187767	45.72611865052986	1027.263387851003	1947.887434243334	74.77162493588126	981.7187895094423	2037.621828141495	902.165758951909	1159.280448221992	2157.851427706387	27.56424154269883	978.9515028628198	2097.849939491729	31.85422500553877	1084.829789278131	1944.129598872502	851.7485478342805	1038.359145001502	2030.795318279174	139.8284386609646	1060.352664522375	2008.880191732974	167.7491936161153	1023.681405021979	2057.593281943829	211.8777785472124	1096.440611152301	2034.190706611511	237.0329510052552	1056.123483095661	2148.024621777178	483.8836992369153	1165.327412698745	2098.293746784767	456.5703030787641	1119.195890349786	2082.51004522438	571.299500428951	1178.775851966911	2035.034582607957	545.5496534691986	1134.969461048943	
6	0.03333333333333333	2127.587505293701	805.0596466565331	886.7929930674495	1667.474244057615	389.9030051021563	938.9353404224607	1688.920989952455	366.4400497999234	890.5526037837051	1716.485934190183	378.3710620195921	939.4785968010676	2087.71024694557	883.9315977312842	850.5886434201008	1693.466892282899	171.9024504731931	950.2266777170339	1686.58157108261	219.3555778298884	848.1820651088768	1955.787013260185	841.5501962264636	944.8674082851518	1797.46772278504	339.4056061154039	872.4842029936449	1792.320544039857	370.3170064195526	918.0278092657217	1871.36525068375	369.3024805993321	862.6395301815249	1868.744102676813	395.4000876442307	909.4820291630635	2084.488051405657	449.5498257599804	830.7474930384468	2034.426341472377	440.3318688599916	880.723741853813	2053.570359957588	554.6582762787516	820.6645155972665	2004.684862398252	545.8257809268511	866.8714977296597	2088.686947201235	836.1210777888086	1145.264769174343	2099.397592071053	74.47764130463452	1022.238480157419	1918.362742837096	31.73508374312346	978.6692748137048	1940.209952682412	46.70843185214761	1027.383035933019	1931.581528560431	75.8585388288521	981.8858049999772	2035.341032080595	900.7466926570636	1159.462055774582	2141.042631462484	27.34310630708904	978.9947998768714	2081.01194293648	31.80610007896606	1084.931969187183	1942.270854701434	850.7233570013607	1038.353599842448	2016.345685119791	140.5471571410076	1060.706581634362	1995.103233780141	169.1023149178032	1024.141374844081	2045.106332682828	211.8285610311413	1096.897049932623	2022.327157769992	237.6655473337581	1056.647348338025	2141.498430829393	480.8572182154681	1165.848830153355	2091.467117751307	454.1644366689971	1119.694666635063	2077.288390188122	569.2403824461861	1179.011052762665	2029.617626127494	544.186414539241	1135.035094334772	
